<svg version="1.1" viewBox="0.0 0.0 960.0 960.0" fill="none" stroke="none" stroke-linecap="square" stroke-miterlimit="10" xmlns:xlink="http://www.w3.org/1999/xlink" xmlns="http://www.w3.org/2000/svg"><clipPath id="p.0"><path d="m0 0l960.0 0l0 960.0l-960.0 0l0 -960.0z" clip-rule="nonzero"/></clipPath><g clip-path="url(#p.0)"><path fill="#000000" fill-opacity="0.0" d="m0 0l960.0 0l0 960.0l-960.0 0z" fill-rule="evenodd"/><path fill="#1266f1" d="m267.67404 313.7912c30.41742 0 50.566162 11.101135 60.44629 33.303314c9.880096 22.091217 14.82016 64.497406 14.82016 127.21863l0 32.80374c0 62.055115 -4.4405212 103.01819 -13.321503 122.88916c-8.769989 19.759949 -28.363708 29.639954 -58.781097 29.639954c-30.306412 0 -50.39966 -10.379517 -60.27977 -31.13855c-9.880112 -20.870117 -14.82016 -64.386475 -14.82016 -130.54898l0 -24.64444c0 -62.055176 4.3849945 -104.12836 13.154968 -126.21951c8.881012 -22.202179 28.4747 -33.303314 58.781113 -33.303314zm1.6651611 -161.68753c-89.365036 0 -153.69675 25.588058 -192.99515 76.764114c-39.187386 51.17607 -58.7811 133.54625 -58.7811 247.11052c0 113.56424 19.427197 197.26651 58.281544 251.1069c38.96537 53.840332 102.742035 80.7605 191.32997 80.7605c88.698975 0 152.80865 -27.253174 192.3291 -81.75958c39.63144 -54.61743 59.447174 -138.70825 59.447174 -252.27255c0 -113.56424 -19.260681 -195.54587 -57.781982 -245.94489c-38.52133 -50.509995 -102.46451 -75.764984 -191.82956 -75.765015z" fill-rule="evenodd"/><path fill="#1266f1" d="m588.4674 162.4277l0 635.2605l175.01117 0l0 -248.60913l136.04578 0l0 -135.04489l-136.04578 0l0 -95.08093l168.84991 0l10.157654 -156.52551z" fill-rule="evenodd"/><path stroke="#1266f1" stroke-width="1.0" stroke-linejoin="round" stroke-linecap="butt" d="m267.67404 313.7912c30.41742 0 50.566162 11.101135 60.44629 33.303314c9.880096 22.091217 14.82016 64.497406 14.82016 127.21863l0 32.80374c0 62.055115 -4.4405212 103.01819 -13.321503 122.88916c-8.769989 19.759949 -28.363708 29.639954 -58.781097 29.639954c-30.306412 0 -50.39966 -10.379517 -60.27977 -31.13855c-9.880112 -20.870117 -14.82016 -64.386475 -14.82016 -130.54898l0 -24.64444c0 -62.055176 4.3849945 -104.12836 13.154968 -126.21951c8.881012 -22.202179 28.4747 -33.303314 58.781113 -33.303314zm1.6651611 -161.68753c-89.365036 0 -153.69675 25.588058 -192.99515 76.764114c-39.187386 51.17607 -58.7811 133.54625 -58.7811 247.11052c0 113.56424 19.427197 197.26651 58.281544 251.1069c38.96537 53.840332 102.742035 80.7605 191.32997 80.7605c88.698975 0 152.80865 -27.253174 192.3291 -81.75958c39.63144 -54.61743 59.447174 -138.70825 59.447174 -252.27255c0 -113.56424 -19.260681 -195.54587 -57.781982 -245.94489c-38.52133 -50.509995 -102.46451 -75.764984 -191.82956 -75.765015z" fill-rule="evenodd"/><path stroke="#1266f1" stroke-width="1.0" stroke-linejoin="round" stroke-linecap="butt" d="m588.4674 162.4277l0 635.2605l175.01117 0l0 -248.60913l136.04578 0l0 -135.04489l-136.04578 0l0 -95.08093l168.84991 0l10.157654 -156.52551z" fill-rule="evenodd"/></g></svg>